<svg width="120" height="46" viewBox="0 0 120 46" fill="none" xmlns="http://www.w3.org/2000/svg">
<g clip-path="url(#clip0_3266_25239)">
<path fill-rule="evenodd" clip-rule="evenodd" d="M22.1628 0H22.8401C28.2619 0.0700356 33.6342 2.17879 37.6313 5.84626C38.6887 6.78235 39.6299 7.84484 40.484 8.96797C42.5295 11.678 43.9456 14.8586 44.593 18.1913C45.3301 21.9451 45.0884 25.8867 43.8893 29.5191C43.0924 31.9636 41.8642 34.2645 40.2918 36.2981C38.5666 38.5221 36.4219 40.4174 34.0006 41.854C30.6431 43.8559 26.7562 44.9509 22.8487 45.0107H22.168C18.5073 44.9543 14.8621 43.9943 11.6567 42.2229C8.80399 40.6574 6.30064 38.4632 4.37552 35.8403C1.61338 32.1028 0.064911 27.4907 0 22.8444V22.1646C0.0392883 19.9149 0.406548 17.6695 1.10861 15.5308C2.71772 10.5378 6.14605 6.16228 10.607 3.40185C14.0549 1.24612 18.0974 0.0606406 22.1628 0ZM19.8047 5.32783C16.449 5.83601 13.2555 7.35288 10.7377 9.62904C9.01922 11.1724 7.6168 13.0668 6.63203 15.155C5.15018 18.2699 4.63004 21.8289 5.14847 25.2384C5.62762 28.4541 7.02747 31.5263 9.14135 33.9954C11.8121 37.153 15.6461 39.2942 19.7321 39.928C23.4243 40.519 27.3002 39.8818 30.6064 38.1327C33.688 36.5244 36.2622 33.9698 37.8961 30.9011C39.6598 27.6367 40.3209 23.8061 39.799 20.1352C33.9228 25.9678 28.0612 31.8149 22.1868 37.6493C21.7409 38.1045 21.0201 38.2215 20.4367 37.9926C20.066 37.85 19.803 37.5425 19.5288 37.27C15.9177 33.6752 12.3032 30.0837 8.69295 26.488C8.07545 25.9123 8.02847 24.8498 8.60669 24.2306C9.13879 23.6823 9.68797 23.1493 10.2295 22.6095C10.6958 22.1406 11.4517 22.0048 12.0538 22.2747C12.4407 22.4319 12.6978 22.7744 12.995 23.0511C15.6837 25.727 18.3732 28.4011 21.0611 31.0779C26.4282 25.7312 31.8013 20.3906 37.1684 15.0448C37.3888 14.8023 37.6638 14.6161 37.9712 14.5008C36.2374 11.1869 33.4181 8.45722 30.0401 6.84982C26.8851 5.32527 23.2663 4.78975 19.8047 5.32783Z" fill="white"/>
<path fill-rule="evenodd" clip-rule="evenodd" d="M22.7513 9.18405C23.2971 8.94832 24.006 9.22248 24.1896 9.80326C24.3408 10.3226 24.3194 10.964 23.9317 11.3799C23.4363 11.889 22.4439 11.7233 22.191 11.0408C21.9476 10.4097 22.0544 9.47444 22.7513 9.18405ZM23.0187 9.61707C22.7735 9.71358 22.7308 10.0117 22.7035 10.2406C22.6907 10.5301 22.6839 10.8683 22.8948 11.0964C23.1049 11.2988 23.4816 11.1886 23.5653 10.9136C23.6857 10.5711 23.7036 10.1765 23.5661 9.83657C23.4841 9.61963 23.2253 9.54277 23.0187 9.61707Z" fill="white"/>
<path fill-rule="evenodd" clip-rule="evenodd" d="M24.8131 9.17285C25.036 9.20872 25.2589 9.24289 25.4802 9.29072C25.5203 9.91933 25.5818 10.5479 25.6066 11.1783C25.8756 10.6094 26.1703 10.0543 26.4419 9.48716C26.6656 9.53072 26.8886 9.57598 27.1123 9.6204C26.6853 10.3899 26.2369 11.1475 25.7996 11.9111C25.5801 11.8692 25.3606 11.8257 25.1436 11.771C25.036 10.905 24.9361 10.0372 24.8131 9.17285Z" fill="white"/>
<path fill-rule="evenodd" clip-rule="evenodd" d="M19.8841 9.46894C20.2343 9.27933 20.7049 9.22637 21.0602 9.42879C21.2567 9.54837 21.3566 9.76274 21.4454 9.96516C21.2567 10.0164 21.0645 10.0548 20.8706 10.0796C20.8014 9.9626 20.7126 9.86011 20.6093 9.77214C20.4043 9.77043 20.1788 9.80886 20.0737 10.0079C19.9755 10.2718 20.0327 10.5588 20.0934 10.8244C20.1455 11.0336 20.2326 11.2625 20.4419 11.3607C20.6451 11.441 20.851 11.3351 21.0414 11.2702C21.0278 11.1293 21.0107 10.9892 20.9859 10.85C20.8433 10.8705 20.7006 10.8936 20.558 10.9158C20.5367 10.7774 20.5145 10.6399 20.4931 10.5024C20.8262 10.4366 21.1602 10.3717 21.4932 10.3085C21.5658 10.6519 21.6325 10.9969 21.6931 11.3428C21.3463 11.7502 20.7715 11.9475 20.248 11.8407C19.7705 11.7212 19.5083 11.2335 19.4486 10.7774C19.3324 10.3094 19.4366 9.72602 19.8841 9.46894Z" fill="white"/>
<path fill-rule="evenodd" clip-rule="evenodd" d="M28.3106 10.0684C28.5259 10.1299 28.7257 10.2341 28.9256 10.3348C28.8069 10.9455 28.7086 11.5613 28.5814 12.1703C28.9931 11.7031 29.4005 11.2316 29.8053 10.7585C30.0137 10.8533 30.2212 10.9523 30.4262 11.0557C29.8096 11.6869 29.1997 12.324 28.5763 12.9492C28.3773 12.8501 28.1783 12.7511 27.9801 12.6503C28.1031 11.7911 28.1953 10.9284 28.3106 10.0684Z" fill="white"/>
<path fill-rule="evenodd" clip-rule="evenodd" d="M76.7274 10.113C77.1323 10.1105 77.5371 10.1122 77.9428 10.1122C77.9795 10.3428 78.0162 10.6349 78.2631 10.7382C78.5979 10.8766 78.9925 10.8706 79.3281 10.7374C79.5792 10.64 79.6236 10.3471 79.6595 10.1122C80.0635 10.1113 80.4675 10.1105 80.8723 10.113C80.9039 10.8177 80.4769 11.5351 79.7817 11.7367C79.1189 11.9305 78.3801 11.9365 77.725 11.7119C77.0682 11.4813 76.7325 10.7741 76.7274 10.113Z" fill="white"/>
<path fill-rule="evenodd" clip-rule="evenodd" d="M112.007 10.1651C112.678 10.1616 113.349 10.1634 114.021 10.1651C113.391 10.7347 112.766 11.3095 112.137 11.8801C111.676 11.8809 111.216 11.8818 110.756 11.8792C111.169 11.3053 111.591 10.7373 112.007 10.1651Z" fill="white"/>
<path fill-rule="evenodd" clip-rule="evenodd" d="M15.8818 10.9968C16.4114 10.7662 16.9153 10.4835 17.438 10.2393C17.5089 10.381 17.5806 10.5237 17.6532 10.6655C17.3235 10.8371 16.9853 10.99 16.6505 11.1506C16.7137 11.3094 16.7786 11.4674 16.8598 11.6186C17.145 11.4785 17.4329 11.3453 17.7173 11.2044C17.7839 11.3393 17.8505 11.4751 17.9171 11.6101C17.6361 11.751 17.3543 11.8911 17.0733 12.0329C17.1587 12.2054 17.2441 12.3771 17.3295 12.5496C17.6626 12.3873 17.9906 12.2156 18.3288 12.0662C18.3988 12.2071 18.468 12.348 18.5381 12.4889C18.0248 12.7477 17.5055 12.9911 16.9913 13.2457C16.6138 12.5 16.2499 11.7476 15.8818 10.9968Z" fill="white"/>
<path fill-rule="evenodd" clip-rule="evenodd" d="M58.5403 11.2783C58.7436 10.7778 59.1544 10.3439 59.7028 10.2465C60.281 10.0791 60.8472 10.3337 61.3751 10.5463C61.7996 10.7231 62.3547 10.6164 62.5682 10.1748C62.8945 10.3704 63.2216 10.5634 63.5496 10.7547C63.3463 11.2715 62.9116 11.7088 62.3479 11.7993C61.7953 11.9428 61.2546 11.7122 60.7542 11.5029C60.3262 11.3133 59.7386 11.3987 59.5277 11.8608C59.198 11.6669 58.8692 11.473 58.5403 11.2783Z" fill="white"/>
<path fill-rule="evenodd" clip-rule="evenodd" d="M14.6989 11.7902C14.8603 11.6672 15.0252 11.5477 15.1909 11.4307C15.6845 12.0977 16.1876 12.7579 16.6787 13.4267C16.5173 13.548 16.3558 13.6692 16.1944 13.7905C15.6572 13.5497 15.1149 13.3182 14.5776 13.0782C14.8919 13.483 15.196 13.8964 15.4975 14.3115C15.3326 14.4302 15.1712 14.5524 15.0115 14.6771C14.5102 14.0109 14.0173 13.3379 13.5168 12.6717C13.6791 12.5529 13.8405 12.4325 14.0003 12.3095C14.5426 12.5487 15.0901 12.775 15.6273 13.0278C15.3113 12.6196 15.0124 12.1993 14.6989 11.7902Z" fill="white"/>
<path fill-rule="evenodd" clip-rule="evenodd" d="M31.0147 11.4414C31.1821 11.5593 31.3452 11.6823 31.5066 11.8087C31.4357 12.3946 31.3555 12.9788 31.2863 13.5638C31.5809 13.1436 31.897 12.7371 32.207 12.3271C32.3659 12.4509 32.5281 12.5705 32.693 12.6875C32.1942 13.3563 31.692 14.0233 31.1915 14.6912C31.0224 14.5699 30.8567 14.4444 30.7004 14.3077C30.8029 13.7287 30.8404 13.1411 30.9404 12.562C30.6355 12.9813 30.3177 13.3904 30.012 13.8081C29.8471 13.6868 29.6849 13.5621 29.5251 13.4349C30.018 12.7678 30.5219 12.1093 31.0147 11.4414Z" fill="white"/>
<path fill-rule="evenodd" clip-rule="evenodd" d="M26.6759 11.6553C26.8621 11.6083 27.0841 11.7048 27.1243 11.9055C27.1559 12.1412 26.8527 12.3505 26.652 12.2002C26.4026 12.1276 26.4256 11.7057 26.6759 11.6553Z" fill="white"/>
<path fill-rule="evenodd" clip-rule="evenodd" d="M18.9967 11.7426C19.2248 11.6803 19.4571 11.986 19.3042 12.1816C19.1846 12.3806 18.8267 12.4276 18.7294 12.1833C18.6252 11.9852 18.7969 11.7725 18.9967 11.7426Z" fill="white"/>
<path fill-rule="evenodd" clip-rule="evenodd" d="M59.5618 12.3311C60.5517 12.3336 61.5425 12.3319 62.5332 12.3319C63.2165 15.9558 63.9126 19.5772 64.5899 23.2019C63.9066 23.2028 63.2233 23.2011 62.5409 23.2028C62.4137 22.5494 62.3069 21.8926 62.1865 21.2384C61.3631 21.2375 60.5406 21.2375 59.7181 21.2384C59.5952 21.8892 59.514 22.5605 59.3517 23.1968C58.7334 23.2105 58.1142 23.1994 57.4958 23.2002C58.1885 19.578 58.8658 15.9533 59.5618 12.3311ZM59.9838 19.6797C60.6243 19.6763 61.2649 19.6754 61.9055 19.6797C61.5912 17.8681 61.2564 16.0592 60.9446 14.2476C60.6329 16.0592 60.2989 17.8681 59.9838 19.6797Z" fill="white"/>
<path fill-rule="evenodd" clip-rule="evenodd" d="M91.4084 13.4263C91.8346 12.7337 92.6468 12.3963 93.43 12.3229C94.1893 12.2665 94.9862 12.2784 95.6917 12.6004C96.2443 12.8447 96.6858 13.3256 96.8772 13.8995C97.1189 14.5973 97.0411 15.348 97.0548 16.0732C96.41 16.0749 95.766 16.0749 95.1229 16.0732C95.1083 15.5684 95.1527 15.0594 95.0887 14.5572C94.9315 13.5468 93.0858 13.6134 93.0611 14.6682C93.0269 16.5814 93.0577 18.4962 93.0457 20.4094C93.0534 20.7263 93.0167 21.0679 93.1764 21.3566C93.3105 21.6017 93.594 21.7213 93.8605 21.7537C94.209 21.7956 94.6044 21.7555 94.8735 21.5061C95.0921 21.2883 95.116 20.9603 95.1203 20.6699C95.1246 20.0174 95.1194 19.3657 95.1229 18.714C94.8179 18.714 94.5139 18.714 94.2107 18.7132C94.209 18.1982 94.2098 17.6823 94.2098 17.1673C95.1579 17.1673 96.1068 17.1664 97.0548 17.1681C97.0514 18.334 97.0625 19.4998 97.0497 20.6665C97.0403 21.3685 96.8396 22.1125 96.3066 22.601C95.6814 23.1895 94.7778 23.3372 93.9502 23.3176C93.1362 23.321 92.2497 23.1348 91.6698 22.5216C91.1684 22.0134 91.0087 21.2729 91.0053 20.5811C91.0036 19.0454 91.0053 17.5089 91.0044 15.9724C91.0104 15.1166 90.9233 14.1822 91.4084 13.4263Z" fill="white"/>
<path fill-rule="evenodd" clip-rule="evenodd" d="M50.5153 12.3853C51.6683 12.3853 52.8222 12.381 53.9761 12.387C54.7567 12.4058 55.6057 12.6031 56.1446 13.2095C56.6101 13.7253 56.7425 14.4453 56.7459 15.1192C56.7493 16.8838 56.7467 18.6475 56.7476 20.4112C56.7502 21.1124 56.6306 21.8674 56.1455 22.4063C55.6065 23.0127 54.7576 23.21 53.9778 23.2288C52.823 23.2348 51.6692 23.2305 50.5153 23.2305C50.5161 21.6684 50.5144 20.1054 50.5161 18.5433C50.2958 18.5433 50.0754 18.5433 49.8559 18.5424C49.8542 18.0846 49.8551 17.626 49.8551 17.1682C50.0746 17.1673 50.2949 17.1673 50.5153 17.1665C50.5153 15.5727 50.5161 13.979 50.5153 12.3853ZM52.5617 13.9312C52.5643 15.0099 52.5625 16.0878 52.5625 17.1665C52.9759 17.1682 53.3902 17.1665 53.8044 17.1673C53.8035 17.626 53.8044 18.0838 53.8035 18.5424C53.3893 18.5441 52.9751 18.5424 52.5617 18.5433C52.5643 19.593 52.5625 20.6435 52.5625 21.6932C53.0929 21.6735 53.6387 21.7538 54.158 21.6103C54.5244 21.501 54.7097 21.1124 54.6978 20.7502C54.7029 18.7901 54.702 16.8291 54.6978 14.8681C54.7157 14.4855 54.4996 14.0815 54.1076 13.9884C53.6003 13.8782 53.0759 13.9517 52.5617 13.9312Z" fill="white"/>
<path fill-rule="evenodd" clip-rule="evenodd" d="M68.3659 12.3853C69.5223 12.3853 70.6787 12.381 71.8352 12.387C72.6124 12.4066 73.458 12.6048 73.9952 13.2086C74.4607 13.7262 74.593 14.447 74.5973 15.1226C74.5999 16.6293 74.5973 18.1367 74.5982 19.6442C74.593 20.2105 74.6272 20.7827 74.5136 21.3404C74.4 21.8888 74.1011 22.4115 73.6313 22.7292C73.0326 23.1383 72.2844 23.2339 71.5764 23.2365C70.5062 23.2459 69.436 23.2399 68.3667 23.2391C68.3659 21.6735 68.3659 20.1088 68.3667 18.5433C68.1455 18.5433 67.926 18.5433 67.7065 18.5424C67.7048 18.0838 67.7048 17.626 67.7056 17.1682C67.9251 17.1673 68.1455 17.1673 68.3659 17.1665C68.3659 15.5727 68.3667 13.979 68.3659 12.3853ZM70.4123 13.9312C70.414 15.0099 70.4131 16.0878 70.4131 17.1665C70.8265 17.1682 71.2407 17.1665 71.655 17.1673C71.6541 17.626 71.655 18.0838 71.6541 18.5424C71.2399 18.5441 70.8256 18.5424 70.4123 18.5433C70.414 19.593 70.4131 20.6435 70.4131 21.6932C70.9452 21.6735 71.4927 21.7555 72.0128 21.6086C72.3775 21.4984 72.5603 21.1098 72.5483 20.7494C72.5535 18.7875 72.5535 16.8257 72.5483 14.8647C72.5654 14.4812 72.3468 14.0781 71.9539 13.9875C71.4474 13.8791 70.9247 13.9517 70.4123 13.9312Z" fill="white"/>
<path fill-rule="evenodd" clip-rule="evenodd" d="M77.3236 12.3848C78.3152 12.3856 79.3076 12.3839 80.3009 12.3856C80.9791 16.0044 81.6769 19.6206 82.3507 23.2403C81.6683 23.242 80.9851 23.2411 80.3026 23.2403C80.1771 22.5878 80.0678 21.9318 79.9499 21.2776C79.1274 21.2776 78.3049 21.2742 77.4833 21.2784C77.3748 21.9335 77.2518 22.586 77.1391 23.2411C76.513 23.2403 75.8878 23.2428 75.2618 23.2394C75.9519 19.6215 76.6326 16.0018 77.3236 12.3848ZM77.7497 19.73H79.6749C79.3563 17.9176 79.0241 16.1078 78.7106 14.2945C78.3971 16.1078 78.0632 17.9167 77.7497 19.73Z" fill="white"/>
<path fill-rule="evenodd" clip-rule="evenodd" d="M83.2979 12.3849C84.1494 12.3831 85.001 12.384 85.8525 12.384C86.5349 14.5252 87.2182 16.6673 87.9057 18.8068C87.9066 16.6664 87.9057 14.5252 87.9057 12.3849C88.5121 12.384 89.1194 12.3831 89.7267 12.3849C89.7267 15.8875 89.7241 19.3901 89.7284 22.8928C89.7122 23.0029 89.7583 23.1379 89.7002 23.2352C89.0109 23.2481 88.3208 23.237 87.6324 23.2395C86.7971 20.6311 85.9576 18.0236 85.1299 15.4126C85.1368 18.021 85.1317 20.6303 85.1325 23.2395C84.521 23.2412 83.9094 23.2404 83.2988 23.2395C83.2979 19.6216 83.2988 16.0028 83.2979 12.3849Z" fill="white"/>
<path fill-rule="evenodd" clip-rule="evenodd" d="M101.248 12.3849C101.931 12.3831 102.613 12.384 103.296 12.384C103.294 13.9504 103.3 15.516 103.292 17.0815C104.153 15.5091 105.04 13.9513 105.911 12.3849C106.592 12.384 107.273 12.3831 107.956 12.3849C107.02 13.994 106.089 15.6065 105.148 17.2139C106.079 19.2244 107.025 21.229 107.958 23.2387C107.259 23.2412 106.56 23.2412 105.862 23.2395C105.208 21.8012 104.554 20.3638 103.904 18.9238C103.713 19.256 103.481 19.5635 103.304 19.9017C103.284 21.0138 103.303 22.1266 103.296 23.2395C102.613 23.2404 101.931 23.2421 101.248 23.2387C101.248 19.6207 101.249 16.0028 101.248 12.3849Z" fill="white"/>
<path fill-rule="evenodd" clip-rule="evenodd" d="M108.191 12.3866C108.901 12.3823 109.611 12.384 110.321 12.3849C110.833 14.0239 111.35 15.6603 111.854 17.3019C112.362 15.662 112.877 14.0247 113.385 12.3849C114.035 12.3831 114.685 12.384 115.335 12.384C114.496 14.7806 113.645 17.172 112.81 19.5695C112.755 20.7891 112.803 22.0165 112.786 23.2387C112.104 23.2421 111.422 23.2404 110.74 23.2395C110.739 22.0976 110.738 20.9557 110.742 19.8138C110.754 19.5772 110.641 19.3619 110.569 19.1441C109.777 16.891 108.981 14.6397 108.191 12.3866Z" fill="white"/>
<path fill-rule="evenodd" clip-rule="evenodd" d="M12.5389 13.6176C12.6782 13.4767 12.8182 13.3375 12.9583 13.1982C13.5502 13.7876 14.1404 14.3786 14.7305 14.9705C14.5913 15.1097 14.453 15.2489 14.3146 15.389C13.709 14.8125 13.1223 14.2163 12.5389 13.6176Z" fill="white"/>
<path fill-rule="evenodd" clip-rule="evenodd" d="M11.0904 15.3095C11.2151 15.1498 11.3406 14.9909 11.4662 14.832C11.9957 15.2488 12.5287 15.6614 13.0548 16.0824C13.2769 15.8168 13.4836 15.5401 13.6979 15.2702C13.8286 15.3607 13.9567 15.4547 14.0823 15.552C13.7381 15.9842 13.399 16.4215 13.0574 16.8562C12.4006 16.3421 11.7378 15.8356 11.0904 15.3095Z" fill="white"/>
<path fill-rule="evenodd" clip-rule="evenodd" d="M10.5899 16.042C11.3287 16.4263 12.0632 16.8201 12.8037 17.2027C12.7157 17.3846 12.6269 17.5665 12.5287 17.7425C11.9334 17.7442 11.3406 17.8074 10.7453 17.7929C11.2031 18.0363 11.6626 18.2754 12.1221 18.5146C12.0273 18.694 11.9334 18.8742 11.8369 19.0527C11.0912 18.6811 10.3635 18.2763 9.6239 17.8937C9.71444 17.7135 9.80838 17.5358 9.90404 17.359C10.4917 17.3513 11.0784 17.2967 11.666 17.306C11.2193 17.0567 10.765 16.8201 10.3114 16.5843C10.408 16.405 10.5002 16.2239 10.5899 16.042Z" fill="white"/>
<path fill-rule="evenodd" clip-rule="evenodd" d="M9.77165 18.9177C10.2824 18.8314 10.8452 19.0006 11.2236 19.355C11.7839 19.8922 11.4551 20.9778 10.6949 21.1221C10.1568 21.2135 9.54788 21.0384 9.17635 20.6302C8.68439 20.0665 9.0303 19.051 9.77165 18.9177ZM9.69393 19.5301C9.3967 19.6463 9.3446 20.1058 9.62645 20.2706C9.93478 20.4559 10.3131 20.5798 10.6753 20.5354C11.0169 20.5029 11.1416 19.9947 10.8555 19.8051C10.5326 19.5617 10.0911 19.4515 9.69393 19.5301Z" fill="white"/>
<path fill-rule="evenodd" clip-rule="evenodd" d="M50.6477 25.4521H114.705C114.704 25.6512 114.704 25.8502 114.705 26.05H50.6477C50.6468 25.8502 50.6468 25.6512 50.6477 25.4521Z" fill="white"/>
<path fill-rule="evenodd" clip-rule="evenodd" d="M57.1499 27.1639C57.2874 27.1614 57.4266 27.1588 57.5667 27.1562C57.8878 27.5107 58.2073 27.8677 58.5224 28.2281C58.3183 28.223 58.1056 28.2632 57.9066 28.2145C57.7162 28.0206 57.5488 27.8062 57.3617 27.6098C57.1815 27.8139 57.003 28.0197 56.8305 28.229C56.6221 28.2333 56.4145 28.2341 56.2078 28.2324C56.5059 27.8626 56.8467 27.5295 57.1499 27.1639Z" fill="white"/>
<path fill-rule="evenodd" clip-rule="evenodd" d="M69.1918 27.1639C69.3301 27.1614 69.4693 27.1588 69.6094 27.1562C69.9306 27.5116 70.2508 27.8677 70.5651 28.229C70.3653 28.2324 70.1654 28.2341 69.9664 28.2367C69.7785 28.0274 69.5923 27.8173 69.4044 27.6098C69.2251 27.8139 69.0466 28.0189 68.874 28.229C68.6656 28.2333 68.4581 28.235 68.2505 28.2324C68.5486 27.8626 68.8894 27.5303 69.1918 27.1639Z" fill="white"/>
<path fill-rule="evenodd" clip-rule="evenodd" d="M104.212 28.1348C104.42 28.1356 104.628 28.1356 104.837 28.1382C104.812 28.508 104.767 28.9026 104.529 29.2041C104.371 29.427 104.111 29.5363 103.861 29.6192C104.04 29.9676 104.157 30.3494 104.19 30.7415C104.215 31.5836 104.274 32.5 103.786 33.2363C103.121 34.3833 101.283 34.4713 100.468 33.4481C99.9228 32.799 99.8306 31.9116 99.8716 31.0968C99.8776 30.3247 100.128 29.503 100.744 29.0008C101.542 28.35 102.808 28.432 103.536 29.1546C103.696 29.1007 103.875 29.0563 103.987 28.9171C104.18 28.7044 104.175 28.4012 104.212 28.1348ZM101.585 29.2639C100.929 29.4825 100.647 30.2034 100.601 30.8388C100.582 31.5563 100.529 32.3403 100.95 32.9664C101.394 33.6915 102.588 33.7385 103.091 33.056C103.443 32.5974 103.504 31.9936 103.485 31.4341C103.501 30.8414 103.478 30.1974 103.11 29.7012C102.782 29.2254 102.113 29.0802 101.585 29.2639Z" fill="white"/>
<path fill-rule="evenodd" clip-rule="evenodd" d="M99.4275 28.3223C99.6179 28.3231 99.8084 28.3231 100.001 28.324C100.009 28.7835 99.9322 29.2993 99.5726 29.6222C99.3173 29.8571 98.9637 29.9211 98.6306 29.9536C98.6297 30.7607 98.6306 31.5687 98.6306 32.3766C98.6331 32.8404 98.4606 33.3153 98.1139 33.6313C97.7201 34.025 97.1419 34.1754 96.5978 34.1497C95.9855 34.1625 95.3338 33.9038 94.9964 33.3734C94.7829 33.0531 94.7146 32.6628 94.7188 32.2844C94.7188 31.0656 94.718 29.8468 94.7197 28.6289H95.4337C95.4363 29.8801 95.4294 31.1314 95.4363 32.3818C95.4303 32.7866 95.6156 33.2171 95.9872 33.4109C96.4313 33.6253 96.9865 33.6211 97.4178 33.3759C97.791 33.1513 97.9149 32.6875 97.9106 32.2776C97.9208 31.0613 97.9149 29.8443 97.9131 28.628C98.1514 28.6289 98.3906 28.6289 98.6297 28.6297C98.6306 28.8979 98.6297 29.1661 98.6297 29.4343C98.8373 29.3984 99.0602 29.3412 99.2011 29.1695C99.4001 28.9355 99.3839 28.6084 99.4275 28.3223Z" fill="white"/>
<path fill-rule="evenodd" clip-rule="evenodd" d="M50.6656 28.6302C51.3182 28.6353 51.9707 28.6157 52.6232 28.6421C53.0614 28.6584 53.5269 28.7668 53.8506 29.082C54.1606 29.4014 54.2426 29.878 54.1905 30.3068C54.117 30.7227 53.7968 31.0558 53.4158 31.2164C53.649 31.3026 53.8864 31.4137 54.0444 31.6135C54.4809 32.1525 54.4424 32.9912 54.018 33.525C53.7002 33.9093 53.1844 34.0656 52.701 34.0759C52.0219 34.0819 51.3429 34.0767 50.6648 34.0776C50.6656 32.2618 50.6639 30.446 50.6656 28.6302ZM51.3985 29.2426C51.4002 29.8131 51.3985 30.3836 51.3993 30.9542C51.9417 30.9115 52.5259 31.0643 53.0366 30.8286C53.6259 30.5698 53.6499 29.5552 53.0255 29.3305C52.5002 29.1674 51.9382 29.2699 51.3985 29.2426ZM51.3985 31.5486C51.4002 32.1986 51.3985 32.8477 51.3993 33.4977C51.9673 33.4643 52.566 33.589 53.1101 33.3764C53.561 33.1945 53.7045 32.6393 53.5875 32.2029C53.5277 31.8271 53.1553 31.5725 52.7906 31.5563C52.3269 31.5358 51.8622 31.5529 51.3985 31.5486Z" fill="white"/>
<path fill-rule="evenodd" clip-rule="evenodd" d="M56.6716 28.6631C57.3275 28.4556 58.0928 28.5546 58.6411 28.9825C59.3953 29.5761 59.5695 30.6087 59.514 31.5149C59.5422 32.2289 59.3552 32.9771 58.882 33.5263C58.0672 34.4257 56.4265 34.3625 55.7116 33.3683C55.1428 32.6201 55.1342 31.626 55.2034 30.73C55.2769 29.8494 55.791 28.9424 56.6716 28.6631ZM56.9893 29.2345C56.5563 29.3438 56.2181 29.6983 56.0737 30.1134C55.885 30.5549 55.9004 31.0409 55.9055 31.5115C55.885 32.041 55.9866 32.5979 56.3052 33.0335C56.7963 33.7193 57.9886 33.7108 58.4481 32.9934C58.7769 32.5134 58.8145 31.907 58.7991 31.3433C58.8171 30.7855 58.765 30.1851 58.4293 29.7179C58.1236 29.261 57.5043 29.0953 56.9893 29.2345Z" fill="white"/>
<path fill-rule="evenodd" clip-rule="evenodd" d="M63.1021 29.0183C63.7384 28.487 64.695 28.4238 65.4312 28.7748C66.0461 29.0644 66.3758 29.7365 66.4365 30.3891C66.1948 30.3874 65.9539 30.3874 65.7131 30.3899C65.6481 30.0466 65.555 29.6776 65.2877 29.4342C64.7812 29.0345 63.9792 29.0797 63.5103 29.5188C63.1474 29.8852 63.0252 30.4181 62.9987 30.9169C62.9936 31.5378 62.9449 32.1904 63.2088 32.772C63.3745 33.1529 63.7153 33.4758 64.1355 33.5415C64.5353 33.6064 64.9879 33.5441 65.3057 33.275C65.5773 33.0393 65.6422 32.6686 65.7156 32.3355C65.9573 32.3373 66.199 32.3381 66.4416 32.3398C66.3605 32.9334 66.1051 33.5637 65.5559 33.8661C65.0904 34.1616 64.5182 34.1847 63.9861 34.1274C63.2968 34.0173 62.7177 33.4946 62.4829 32.8454C62.2164 32.2373 62.2873 31.5643 62.2805 30.9195C62.2881 30.2148 62.5469 29.4769 63.1021 29.0183Z" fill="white"/>
<path fill-rule="evenodd" clip-rule="evenodd" d="M68.7057 28.666C69.3642 28.4542 70.1346 28.5533 70.6855 28.9838C71.4098 29.5577 71.6088 30.5476 71.5567 31.4265C71.5951 32.1857 71.4106 32.9946 70.8871 33.5677C70.0279 34.4576 68.3487 34.3338 67.6834 33.2696C67.1812 32.5291 67.182 31.5887 67.2461 30.7312C67.3196 29.8532 67.8303 28.9487 68.7057 28.666ZM69.038 29.2331C68.6033 29.3408 68.2608 29.6961 68.1164 30.1137C67.9277 30.5553 67.943 31.0421 67.9482 31.5127C67.9268 32.0414 68.0293 32.5974 68.3462 33.0322C68.8364 33.7188 70.0304 33.712 70.4899 32.9946C70.8179 32.5163 70.8572 31.9133 70.8418 31.3513C70.8598 30.7893 70.8085 30.1846 70.4686 29.7149C70.1637 29.2622 69.5504 29.0973 69.038 29.2331Z" fill="white"/>
<path fill-rule="evenodd" clip-rule="evenodd" d="M72.6158 28.6305C72.8567 28.6288 73.0984 28.6288 73.3401 28.6305C74.2429 30.0312 75.1499 31.4302 76.0544 32.8301C76.045 31.4294 76.0552 30.0286 76.0484 28.6279C76.2867 28.6296 76.5259 28.6296 76.7659 28.6305C76.7659 30.4463 76.765 32.2621 76.7659 34.0779C76.5259 34.0787 76.2876 34.0787 76.0484 34.0787C75.1439 32.7062 74.271 31.3115 73.3555 29.9466C73.3418 31.3234 73.3529 32.7011 73.3495 34.0779C73.1044 34.0787 72.8592 34.0787 72.615 34.0779C72.615 32.2621 72.6141 30.4463 72.6158 28.6305Z" fill="white"/>
<path fill-rule="evenodd" clip-rule="evenodd" d="M78.2665 29.4143C78.919 28.4005 80.5068 28.2878 81.4019 29.0317C81.7486 29.3349 81.922 29.7884 81.9921 30.2334C81.7538 30.2351 81.5146 30.2351 81.2772 30.2351C81.1952 29.9593 81.1158 29.6595 80.8843 29.4682C80.5478 29.1487 80.043 29.1248 79.6108 29.2059C79.1659 29.3084 78.8302 29.6808 78.7004 30.1079C78.5022 30.6716 78.5654 31.2754 78.562 31.8613C78.6039 32.5275 78.9318 33.274 79.616 33.4892C80.1677 33.6447 80.8348 33.5763 81.2772 33.1852C81.278 32.7812 81.2763 32.378 81.2789 31.9741C80.8621 31.9758 80.4453 31.9749 80.0285 31.9749C80.0276 31.7708 80.0276 31.5667 80.0294 31.3625H81.9921C81.9929 32.0347 81.9938 32.7077 81.9921 33.3799C81.565 33.9607 80.8074 34.1725 80.1156 34.1494C79.4469 34.1879 78.7619 33.8924 78.357 33.3551C77.9411 32.8085 77.8053 32.1022 77.8232 31.4283C77.8087 30.7382 77.8711 30.002 78.2665 29.4143Z" fill="white"/>
<path fill-rule="evenodd" clip-rule="evenodd" d="M84.4706 28.6289H88.6539C88.6539 28.833 88.6539 29.0372 88.6548 29.2413C88.0791 29.2421 87.5035 29.2404 86.9287 29.2421C86.9304 30.8538 86.9287 32.4655 86.9295 34.0772C86.6844 34.078 86.4393 34.078 86.195 34.0772C86.1959 32.4655 86.1933 30.8538 86.1959 29.2421C85.6202 29.2404 85.0454 29.2421 84.4697 29.2413C84.4689 29.0372 84.4689 28.833 84.4706 28.6289Z" fill="white"/>
<path fill-rule="evenodd" clip-rule="evenodd" d="M89.4414 28.6296C89.6848 28.6288 89.9291 28.6288 90.1742 28.6296C90.1751 29.4094 90.1759 30.1901 90.1742 30.9707C91.0753 30.9724 91.9764 30.9707 92.8783 30.9716C92.8723 30.1901 92.88 29.4094 92.874 28.6279C93.1123 28.6288 93.3514 28.6288 93.5906 28.6296C93.5923 30.4454 93.5906 32.2612 93.5914 34.077C93.3523 34.0779 93.114 34.0779 92.8757 34.077C92.8766 33.2392 92.8757 32.4022 92.8766 31.5643C91.9755 31.5652 91.0753 31.5643 90.1751 31.5652V34.077C89.9299 34.0779 89.6848 34.0779 89.4406 34.077C89.4414 32.2612 89.4397 30.4454 89.4414 28.6296Z" fill="white"/>
<path fill-rule="evenodd" clip-rule="evenodd" d="M105.327 28.6305C105.568 28.6288 105.809 28.6288 106.052 28.6305C106.955 30.0312 107.862 31.4302 108.766 32.8301C108.757 31.4294 108.766 30.0286 108.761 28.6279C108.998 28.6296 109.238 28.6296 109.477 28.6305C109.478 30.4463 109.477 32.2621 109.478 34.0779C109.238 34.0787 108.998 34.0787 108.76 34.0787C107.856 32.6943 106.961 31.3029 106.059 29.9168C106.064 31.3038 106.059 32.6908 106.061 34.0779C105.815 34.0787 105.571 34.0787 105.327 34.0779C105.327 32.2621 105.326 30.4463 105.327 28.6305Z" fill="white"/>
<path fill-rule="evenodd" clip-rule="evenodd" d="M111.029 29.4683C111.648 28.4246 113.23 28.282 114.151 28.9909C114.527 29.2932 114.717 29.7681 114.789 30.2344C114.55 30.2353 114.312 30.2353 114.075 30.2353C113.992 29.9603 113.913 29.6605 113.683 29.4692C113.344 29.148 112.836 29.125 112.402 29.2078C111.958 29.312 111.624 29.6861 111.496 30.1131C111.3 30.6751 111.362 31.2773 111.36 31.8606C111.401 32.5268 111.728 33.2733 112.412 33.4894C112.964 33.6457 113.631 33.5756 114.073 33.1862C114.075 32.7822 114.073 32.3782 114.076 31.9742C113.659 31.9759 113.242 31.9751 112.826 31.9751C112.824 31.7709 112.825 31.5668 112.826 31.3627H114.789C114.79 32.0357 114.791 32.7087 114.788 33.3818C114.36 33.9617 113.602 34.1735 112.909 34.1496C112.243 34.1872 111.562 33.8934 111.157 33.3587C110.739 32.8138 110.602 32.1066 110.62 31.4327C110.606 30.7614 110.663 30.0508 111.029 29.4683Z" fill="white"/>
<path fill-rule="evenodd" clip-rule="evenodd" d="M57.1568 34.6198C57.4335 34.4942 57.8024 34.6958 57.7529 35.0212C57.764 35.3287 57.3985 35.4781 57.1499 35.3585C56.8536 35.2373 56.8561 34.7308 57.1568 34.6198Z" fill="white"/>
<path fill-rule="evenodd" clip-rule="evenodd" d="M19.8047 5.32764C23.2664 4.78956 26.8851 5.32507 30.0402 6.84963C33.4181 8.45703 36.2375 11.1867 37.9713 14.5006C37.6638 14.6159 37.3888 14.8021 37.1684 15.0446C31.8013 20.3904 26.4282 25.7311 21.0611 31.0777C18.3733 28.4009 15.6837 25.7268 12.995 23.0509C12.6978 22.7742 12.4407 22.4317 12.0538 22.2745C11.4517 22.0046 10.6958 22.1404 10.2295 22.6093C9.68799 23.1491 9.13881 23.6821 8.60671 24.2304C8.02849 24.8496 8.07547 25.9121 8.69298 26.4878C12.3032 30.0835 15.9177 33.675 19.5288 37.2698C19.803 37.5423 20.0661 37.8498 20.4367 37.9924C21.0201 38.2213 21.7409 38.1043 22.1868 37.6491C28.0612 31.8148 33.9229 25.9676 39.799 20.135C40.3209 23.8059 39.6598 27.6365 37.8961 30.9009C36.2622 33.9696 33.688 36.5242 30.6064 38.1325C27.3002 39.8817 23.4244 40.5188 19.7321 39.9278C15.6461 39.294 11.8121 37.1528 9.14137 33.9953C7.02749 31.5261 5.62764 28.4539 5.14849 25.2382C4.63006 21.8287 5.1502 18.2697 6.63205 15.1548C7.61682 13.0666 9.01924 11.1722 10.7377 9.62885C13.2555 7.35269 16.449 5.83582 19.8047 5.32764ZM22.7513 9.18386C22.0544 9.47425 21.9476 10.4095 22.1911 11.0407C22.4439 11.7231 23.4363 11.8888 23.9317 11.3797C24.3195 10.9638 24.3408 10.3224 24.1896 9.80308C24.006 9.2223 23.2971 8.94813 22.7513 9.18386ZM24.8131 9.17276C24.9361 10.0371 25.036 10.9049 25.1437 11.7709C25.3606 11.8256 25.5801 11.8691 25.7996 11.911C26.2369 11.1474 26.6853 10.3898 27.1123 9.6203C26.8886 9.57589 26.6656 9.53062 26.4419 9.48707C26.1703 10.0542 25.8756 10.6093 25.6066 11.1782C25.5818 10.5478 25.5203 9.91924 25.4802 9.29062C25.259 9.2428 25.036 9.20863 24.8131 9.17276ZM19.8841 9.46913C19.4366 9.72621 19.3324 10.3096 19.4486 10.7776C19.5083 11.2337 19.7706 11.7214 20.248 11.8409C20.7716 11.9477 21.3464 11.7504 21.6931 11.343C21.6325 10.9971 21.5659 10.652 21.4933 10.3087C21.1602 10.3719 20.8262 10.4368 20.4931 10.5026C20.5145 10.6401 20.5367 10.7776 20.558 10.916C20.7007 10.8938 20.8433 10.8707 20.9859 10.8502C21.0107 10.9894 21.0278 11.1295 21.0414 11.2704C20.851 11.3353 20.6451 11.4412 20.4419 11.3609C20.2326 11.2627 20.1455 11.0338 20.0934 10.8246C20.0328 10.559 19.9755 10.272 20.0738 10.0081C20.1788 9.80906 20.4043 9.77062 20.6093 9.77233C20.7126 9.8603 20.8014 9.9628 20.8706 10.0798C21.0645 10.055 21.2567 10.0166 21.4454 9.96536C21.3566 9.76294 21.2567 9.54856 21.0602 9.42899C20.7049 9.22657 20.2343 9.27952 19.8841 9.46913ZM28.3106 10.0678C28.1953 10.9279 28.1031 11.7906 27.9801 12.6498C28.1782 12.7506 28.3772 12.8496 28.5763 12.9487C29.1997 12.3235 29.8096 11.6864 30.4262 11.0552C30.2212 10.9518 30.0137 10.8528 29.8053 10.758C29.4004 11.2311 28.993 11.7026 28.5814 12.1698C28.7086 11.5608 28.8069 10.945 28.9256 10.3343C28.7257 10.2335 28.5259 10.1293 28.3106 10.0678ZM15.8819 10.9962C16.25 11.747 16.6138 12.4995 16.9913 13.2451C17.5055 12.9906 18.0248 12.7471 18.5381 12.4883C18.4681 12.3474 18.3989 12.2065 18.3288 12.0656C17.9906 12.215 17.6627 12.3867 17.3296 12.549C17.2442 12.3765 17.1587 12.2048 17.0733 12.0323C17.3543 11.8905 17.6362 11.7504 17.9172 11.6095C17.8506 11.4745 17.7839 11.3387 17.7173 11.2038C17.4329 11.3447 17.1451 11.478 16.8598 11.618C16.7787 11.4669 16.7138 11.3088 16.6506 11.15C16.9854 10.9894 17.3236 10.8365 17.6533 10.6649C17.5807 10.5231 17.5089 10.3804 17.438 10.2387C16.9153 10.4829 16.4114 10.7656 15.8819 10.9962ZM14.699 11.7897C15.0124 12.1988 15.3113 12.619 15.6274 13.0273C15.0901 12.7745 14.5427 12.5481 14.0003 12.309C13.8406 12.432 13.6792 12.5524 13.5169 12.6711C14.0174 13.3373 14.5102 14.0103 15.0116 14.6765C15.1713 14.5518 15.3327 14.4297 15.4975 14.311C15.196 13.8959 14.892 13.4825 14.5777 13.0777C15.1149 13.3177 15.6572 13.5491 16.1945 13.79C16.3559 13.6687 16.5173 13.5474 16.6787 13.4261C16.1876 12.7574 15.6846 12.0972 15.1909 11.4301C15.0252 11.5471 14.8604 11.6667 14.699 11.7897ZM31.0147 11.4412C30.5219 12.1091 30.018 12.7676 29.5251 13.4347C29.6849 13.5619 29.8471 13.6866 30.012 13.8079C30.3177 13.3903 30.6355 12.9812 30.9404 12.5618C30.8404 13.1409 30.8029 13.7285 30.7004 14.3076C30.8567 14.4442 31.0224 14.5698 31.1915 14.6911C31.692 14.0232 32.1942 13.3561 32.693 12.6874C32.5281 12.5703 32.3659 12.4508 32.207 12.3269C31.897 12.7369 31.5809 13.1434 31.2863 13.5636C31.3555 12.9786 31.4358 12.3944 31.5066 11.8085C31.3452 11.6821 31.1821 11.5591 31.0147 11.4412ZM26.6759 11.6548C26.4256 11.7051 26.4026 12.1271 26.652 12.1997C26.8527 12.35 27.1559 12.1407 27.1243 11.905C27.0842 11.7043 26.8621 11.6078 26.6759 11.6548ZM18.9967 11.7427C18.7969 11.7726 18.6252 11.9853 18.7294 12.1834C18.8268 12.4277 19.1846 12.3807 19.3042 12.1817C19.4571 11.9861 19.2248 11.6804 18.9967 11.7427ZM12.539 13.6175C13.1223 14.2162 13.7091 14.8123 14.3146 15.3888C14.453 15.2488 14.5913 15.1096 14.7306 14.9703C14.1404 14.3785 13.5502 13.7874 12.9583 13.1981C12.8182 13.3373 12.6782 13.4765 12.539 13.6175ZM11.0904 15.3094C11.7378 15.8355 12.4006 16.342 13.0574 16.8562C13.399 16.4214 13.7381 15.9841 14.0823 15.552C13.9567 15.4546 13.8286 15.3607 13.698 15.2701C13.4836 15.54 13.2769 15.8167 13.0548 16.0824C12.5287 15.6613 11.9958 15.2488 11.4662 14.832C11.3407 14.9908 11.2151 15.1497 11.0904 15.3094ZM10.5899 16.0422C10.5002 16.2241 10.408 16.4052 10.3115 16.5846C10.765 16.8203 11.2194 17.0569 11.6661 17.3063C11.0785 17.2969 10.4917 17.3516 9.90408 17.3592C9.80842 17.536 9.71447 17.7137 9.62394 17.8939C10.3636 18.2765 11.0913 18.6814 11.8369 19.0529C11.9334 18.8744 12.0274 18.6942 12.1222 18.5148C11.6627 18.2757 11.2032 18.0365 10.7454 17.7931C11.3407 17.8076 11.9334 17.7444 12.5287 17.7427C12.6269 17.5668 12.7158 17.3849 12.8037 17.2029C12.0632 16.8203 11.3287 16.4266 10.5899 16.0422ZM9.77169 18.918C9.03034 19.0512 8.68443 20.0667 9.17639 20.6304C9.54792 21.0387 10.1569 21.2138 10.695 21.1224C11.4551 20.978 11.7839 19.8925 11.2237 19.3553C10.8453 19.0008 10.2824 18.8317 9.77169 18.918Z" fill="#DA282D"/>
<path fill-rule="evenodd" clip-rule="evenodd" d="M40.484 8.96815C65.567 8.96815 90.6491 8.9673 115.731 8.96815C116.647 8.96901 117.561 9.2705 118.292 9.8231C119.301 10.5679 119.934 11.7781 120 13.0285V32.2311C119.934 33.6096 119.166 34.93 117.989 35.6526C117.291 36.0916 116.465 36.3119 115.643 36.3C90.5261 36.2974 65.409 36.3008 40.2918 36.2983C41.8642 34.2647 43.0924 31.9637 43.8892 29.5193C45.0884 25.8869 45.3301 21.9452 44.593 18.1915C43.9456 14.8588 42.5295 11.6782 40.484 8.96815ZM76.7274 10.1135C76.7325 10.7746 77.0682 11.4817 77.725 11.7124C78.3801 11.937 79.1189 11.931 79.7816 11.7371C80.4769 11.5356 80.9039 10.8181 80.8723 10.1135C80.4675 10.1109 80.0635 10.1118 79.6595 10.1126C79.6236 10.3475 79.5792 10.6405 79.3281 10.7378C78.9924 10.8711 78.5979 10.877 78.2631 10.7387C78.0162 10.6353 77.9795 10.3432 77.9428 10.1126C77.5371 10.1126 77.1322 10.1109 76.7274 10.1135ZM112.007 10.1656C111.591 10.7378 111.169 11.3058 110.756 11.8798C111.216 11.8823 111.676 11.8815 112.137 11.8806C112.766 11.3101 113.391 10.7353 114.021 10.1656C113.349 10.1639 112.678 10.1622 112.007 10.1656ZM58.5403 11.2785C58.8692 11.4732 59.198 11.6671 59.5277 11.861C59.7386 11.3989 60.3263 11.3135 60.7542 11.5031C61.2547 11.7124 61.7953 11.943 62.3479 11.7995C62.9116 11.7089 63.3463 11.2716 63.5496 10.7549C63.2216 10.5636 62.8945 10.3706 62.5682 10.175C62.3547 10.6166 61.7996 10.7233 61.3751 10.5465C60.8473 10.3338 60.281 10.0793 59.7028 10.2467C59.1544 10.3441 58.7436 10.778 58.5403 11.2785ZM59.5618 12.3316C58.8658 15.9538 58.1885 19.5785 57.4958 23.2008C58.1142 23.1999 58.7334 23.211 59.3517 23.1973C59.514 22.561 59.5952 21.8897 59.7181 21.2389C60.5406 21.238 61.3631 21.238 62.1865 21.2389C62.3069 21.8931 62.4137 22.5499 62.5409 23.2033C63.2233 23.2016 63.9066 23.2033 64.5899 23.2025C63.9126 19.5777 63.2165 15.9563 62.5332 12.3324C61.5425 12.3324 60.5517 12.3341 59.5618 12.3316ZM91.4084 13.4265C90.9233 14.1824 91.0104 15.1168 91.0044 15.9726C91.0053 17.5091 91.0036 19.0456 91.0053 20.5812C91.0087 21.2731 91.1684 22.0136 91.6697 22.5217C92.2497 23.135 93.1362 23.3212 93.9502 23.3178C94.7778 23.3374 95.6814 23.1896 96.3066 22.6012C96.8396 22.1126 97.0403 21.3687 97.0497 20.6667C97.0625 19.5 97.0514 18.3341 97.0548 17.1683C96.1068 17.1666 95.1579 17.1674 94.2098 17.1674C94.2098 17.6825 94.209 18.1983 94.2107 18.7133C94.5139 18.7142 94.8179 18.7142 95.1228 18.7142C95.1194 19.3659 95.1245 20.0175 95.1203 20.6701C95.116 20.9605 95.0921 21.2884 94.8734 21.5062C94.6044 21.7556 94.209 21.7958 93.8605 21.7539C93.594 21.7215 93.3105 21.6019 93.1764 21.3568C93.0167 21.0681 93.0534 20.7264 93.0457 20.4096C93.0576 18.4964 93.0269 16.5815 93.0611 14.6684C93.0858 13.6136 94.9315 13.5469 95.0887 14.5573C95.1527 15.0595 95.1083 15.5686 95.1228 16.0733C95.766 16.0751 96.41 16.0751 97.0548 16.0733C97.0411 15.3482 97.1189 14.5975 96.8771 13.8997C96.6858 13.3257 96.2443 12.8449 95.6917 12.6006C94.9862 12.2786 94.1893 12.2667 93.43 12.323C92.6468 12.3965 91.8346 12.7338 91.4084 13.4265ZM50.5153 12.3854C50.5162 13.9791 50.5153 15.5729 50.5153 17.1666C50.2949 17.1674 50.0746 17.1674 49.8551 17.1683C49.8551 17.6261 49.8542 18.0847 49.8559 18.5425C50.0754 18.5434 50.2958 18.5434 50.5162 18.5434C50.5144 20.1055 50.5162 21.6685 50.5153 23.2306C51.6692 23.2306 52.8231 23.2349 53.9778 23.2289C54.7576 23.2101 55.6065 23.0128 56.1455 22.4064C56.6306 21.8675 56.7502 21.1125 56.7476 20.4113C56.7468 18.6476 56.7493 16.8839 56.7459 15.1193C56.7425 14.4454 56.6101 13.7254 56.1446 13.2096C55.6057 12.6032 54.7567 12.4059 53.9761 12.3871C52.8222 12.3811 51.6683 12.3854 50.5153 12.3854ZM68.3658 12.3854C68.3667 13.9791 68.3658 15.5729 68.3658 17.1666C68.1455 17.1674 67.9251 17.1674 67.7056 17.1683C67.7048 17.6261 67.7048 18.0839 67.7065 18.5425C67.926 18.5434 68.1455 18.5434 68.3667 18.5434C68.3658 20.1089 68.3658 21.6736 68.3667 23.2392C69.436 23.24 70.5062 23.246 71.5764 23.2366C72.2844 23.2341 73.0326 23.1384 73.6313 22.7293C74.1011 22.4116 74.4 21.8889 74.5136 21.3405C74.6272 20.7828 74.593 20.2106 74.5981 19.6443C74.5973 18.1368 74.5998 16.6294 74.5973 15.1227C74.593 14.4472 74.4606 13.7263 73.9952 13.2087C73.4579 12.6049 72.6124 12.4067 71.8352 12.3871C70.6787 12.3811 69.5223 12.3854 68.3658 12.3854ZM77.3236 12.3845C76.6326 16.0016 75.9519 19.6212 75.2618 23.2392C75.8878 23.2426 76.513 23.24 77.1391 23.2409C77.2518 22.5858 77.3748 21.9333 77.4833 21.2782C78.3049 21.2739 79.1274 21.2773 79.9499 21.2773C80.0678 21.9316 80.1771 22.5875 80.3026 23.24C80.985 23.2409 81.6683 23.2417 82.3507 23.24C81.6769 19.6204 80.9791 16.0042 80.3009 12.3854C79.3076 12.3837 78.3152 12.3854 77.3236 12.3845ZM83.2979 12.3854C83.2988 16.0033 83.2979 19.6221 83.2988 23.24C83.9095 23.2409 84.521 23.2417 85.1325 23.24C85.1317 20.6308 85.1368 18.0215 85.13 15.4131C85.9576 18.0241 86.7971 20.6316 87.6325 23.24C88.3209 23.2375 89.011 23.2486 89.7002 23.2358C89.7583 23.1384 89.7122 23.0035 89.7284 22.8933C89.7241 19.3906 89.7267 15.888 89.7267 12.3854C89.1194 12.3837 88.5122 12.3845 87.9058 12.3854C87.9058 14.5257 87.9066 16.6669 87.9058 18.8073C87.2182 16.6678 86.5349 14.5257 85.8525 12.3845C85.001 12.3845 84.1495 12.3837 83.2979 12.3854ZM101.248 12.3854C101.249 16.0033 101.248 19.6212 101.248 23.2392C101.931 23.2426 102.613 23.2409 103.296 23.24C103.302 22.1272 103.284 21.0143 103.304 19.9022C103.481 19.564 103.713 19.2566 103.904 18.9243C104.554 20.3643 105.208 21.8017 105.862 23.24C106.56 23.2417 107.259 23.2417 107.958 23.2392C107.025 21.2295 106.079 19.225 105.148 17.2144C106.089 15.607 107.019 13.9945 107.956 12.3854C107.273 12.3837 106.592 12.3845 105.911 12.3854C105.04 13.9518 104.153 15.5096 103.292 17.082C103.3 15.5165 103.294 13.9509 103.296 12.3845C102.613 12.3845 101.931 12.3837 101.248 12.3854ZM108.191 12.3871C108.981 14.6402 109.777 16.8916 110.569 19.1447C110.641 19.3625 110.754 19.5777 110.742 19.8143C110.738 20.9562 110.739 22.0981 110.74 23.24C111.422 23.2409 112.104 23.2426 112.786 23.2392C112.803 22.017 112.755 20.7896 112.81 19.57C113.645 17.1726 114.496 14.7811 115.335 12.3845C114.685 12.3845 114.035 12.3837 113.385 12.3854C112.877 14.0252 112.362 15.6625 111.854 17.3024C111.35 15.6608 110.833 14.0244 110.321 12.3854C109.611 12.3845 108.901 12.3828 108.191 12.3871ZM50.6477 25.4521C50.6468 25.6511 50.6468 25.8501 50.6477 26.05H114.705C114.704 25.8501 114.704 25.6511 114.705 25.4521H50.6477ZM57.1499 27.1646C56.8467 27.5301 56.5059 27.8632 56.2078 28.2331C56.4145 28.2348 56.6221 28.2339 56.8305 28.2296C57.003 28.0204 57.1815 27.8146 57.3617 27.6104C57.5487 27.8069 57.7162 28.0212 57.9066 28.2151C58.1056 28.2638 58.3183 28.2237 58.5224 28.2288C58.2073 27.8684 57.8878 27.5114 57.5667 27.1569C57.4266 27.1595 57.2874 27.162 57.1499 27.1646ZM69.1917 27.1646C68.8894 27.531 68.5486 27.8632 68.2505 28.2331C68.4581 28.2356 68.6656 28.2339 68.874 28.2296C69.0465 28.0195 69.225 27.8146 69.4044 27.6104C69.5923 27.818 69.7785 28.0281 69.9664 28.2373C70.1654 28.2348 70.3653 28.2331 70.5651 28.2296C70.2508 27.8684 69.9305 27.5122 69.6094 27.1569C69.4693 27.1595 69.3301 27.162 69.1917 27.1646ZM104.212 28.1348C104.175 28.4013 104.18 28.7045 103.987 28.9172C103.875 29.0564 103.696 29.1008 103.536 29.1546C102.808 28.4321 101.542 28.3501 100.744 29.0009C100.128 29.5031 99.8776 30.3247 99.8716 31.0968C99.8306 31.9116 99.9228 32.799 100.468 33.4482C101.283 34.4714 103.121 34.3834 103.786 33.2363C104.274 32.5001 104.215 31.5837 104.19 30.7415C104.157 30.3495 104.04 29.9677 103.861 29.6193C104.111 29.5364 104.371 29.4271 104.529 29.2042C104.767 28.9027 104.813 28.5081 104.837 28.1383C104.628 28.1357 104.42 28.1357 104.212 28.1348ZM99.4275 28.3227C99.3839 28.6089 99.4001 28.936 99.2011 29.17C99.0602 29.3417 98.8373 29.3989 98.6297 29.4348C98.6297 29.1666 98.6306 28.8984 98.6297 28.6302C98.3906 28.6294 98.1515 28.6294 97.9132 28.6285C97.9149 29.8447 97.9208 31.0618 97.9106 32.278C97.9149 32.688 97.791 33.1518 97.4178 33.3764C96.9865 33.6215 96.4313 33.6258 95.9872 33.4114C95.6157 33.2175 95.4303 32.7871 95.4363 32.3822C95.4295 31.1319 95.4363 29.8806 95.4337 28.6294H94.7197C94.718 29.8473 94.7189 31.0661 94.7189 32.2849C94.7146 32.6632 94.7829 33.0536 94.9964 33.3738C95.3338 33.9042 95.9855 34.163 96.5979 34.1502C97.1419 34.1758 97.7201 34.0255 98.1139 33.6318C98.4606 33.3158 98.6332 32.8409 98.6306 32.3771C98.6306 31.5691 98.6297 30.7612 98.6306 29.9541C98.9637 29.9216 99.3173 29.8575 99.5727 29.6227C99.9322 29.2998 100.009 28.784 100.001 28.3245C99.8084 28.3236 99.6179 28.3236 99.4275 28.3227ZM50.6656 28.6302C50.6639 30.446 50.6656 32.2618 50.6648 34.0776C51.3429 34.0768 52.0219 34.0819 52.7009 34.0759C53.1843 34.0657 53.7002 33.9094 54.0179 33.525C54.4424 32.9912 54.4808 32.1525 54.0444 31.6136C53.8864 31.4137 53.649 31.3027 53.4158 31.2164C53.7967 31.0558 54.117 30.7227 54.1905 30.3068C54.2426 29.878 54.1606 29.4015 53.8505 29.082C53.5268 28.7669 53.0613 28.6584 52.6232 28.6422C51.9707 28.6157 51.3181 28.6353 50.6656 28.6302ZM56.6716 28.6635C55.791 28.9428 55.2769 29.8499 55.2034 30.7304C55.1342 31.6264 55.1428 32.6205 55.7116 33.3687C56.4265 34.3629 58.0672 34.4261 58.882 33.5267C59.3552 32.9775 59.5422 32.2294 59.514 31.5153C59.5695 30.6091 59.3953 29.5766 58.6411 28.983C58.0928 28.5551 57.3275 28.456 56.6716 28.6635ZM63.1021 29.0188C62.5469 29.4775 62.2881 30.2154 62.2804 30.92C62.2873 31.5649 62.2164 32.2379 62.4828 32.846C62.7177 33.4951 63.2968 34.0178 63.986 34.128C64.5181 34.1852 65.0904 34.1622 65.5559 33.8667C66.105 33.5643 66.3604 32.934 66.4416 32.3404C66.199 32.3387 65.9573 32.3378 65.7156 32.3361C65.6421 32.6692 65.5772 33.0399 65.3056 33.2756C64.9879 33.5447 64.5352 33.607 64.1355 33.5421C63.7153 33.4763 63.3745 33.1535 63.2088 32.7726C62.9449 32.1909 62.9936 31.5384 62.9987 30.9175C63.0252 30.4187 63.1473 29.8857 63.5103 29.5193C63.9792 29.0803 64.7812 29.0351 65.2877 29.4348C65.555 29.6782 65.6481 30.0472 65.713 30.3905C65.9539 30.3879 66.1947 30.3879 66.4364 30.3896C66.3758 29.7371 66.0461 29.065 65.4312 28.7754C64.6949 28.4244 63.7384 28.4876 63.1021 29.0188ZM68.7058 28.6661C67.8303 28.9488 67.3196 29.8533 67.2461 30.7313C67.1821 31.5888 67.1812 32.5292 67.6834 33.2696C68.3487 34.3338 70.0279 34.4577 70.8871 33.5677C71.4107 32.9946 71.5952 32.1858 71.5567 31.4265C71.6088 30.5477 71.4098 29.5578 70.6855 28.9838C70.1347 28.5534 69.3643 28.4543 68.7058 28.6661ZM72.6158 28.6302C72.6141 30.446 72.6149 32.2618 72.6149 34.0776C72.8592 34.0785 73.1043 34.0785 73.3495 34.0776C73.3529 32.7008 73.3418 31.3232 73.3554 29.9464C74.271 31.3112 75.1439 32.7059 76.0484 34.0785C76.2875 34.0785 76.5258 34.0785 76.7658 34.0776C76.765 32.2618 76.7658 30.446 76.7658 28.6302C76.5258 28.6294 76.2867 28.6294 76.0484 28.6277C76.0552 30.0284 76.045 31.4291 76.0544 32.8298C75.1499 31.4299 74.2428 30.0309 73.3401 28.6302C73.0984 28.6285 72.8566 28.6285 72.6158 28.6302ZM78.2665 29.4143C77.871 30.0019 77.8087 30.7381 77.8232 31.4282C77.8053 32.1021 77.9411 32.8084 78.357 33.3551C78.7618 33.8923 79.4468 34.1878 80.1156 34.1494C80.8074 34.1724 81.565 33.9606 81.992 33.3798C81.9937 32.7077 81.9929 32.0346 81.992 31.3625H80.0293C80.0276 31.5666 80.0276 31.7707 80.0285 31.9748C80.4453 31.9748 80.8621 31.9757 81.2789 31.974C81.2763 32.378 81.278 32.7811 81.2771 33.1851C80.8347 33.5763 80.1677 33.6446 79.6159 33.4891C78.9318 33.2739 78.6038 32.5274 78.562 31.8612C78.5654 31.2753 78.5022 30.6715 78.7004 30.1078C78.8302 29.6808 79.1658 29.3084 79.6108 29.2059C80.043 29.1247 80.5478 29.1487 80.8843 29.4681C81.1157 29.6594 81.1952 29.9592 81.2771 30.2351C81.5146 30.2351 81.7537 30.2351 81.992 30.2333C81.922 29.7884 81.7486 29.3348 81.4018 29.0316C80.5068 28.2877 78.919 28.4005 78.2665 29.4143ZM84.4706 28.6294C84.4689 28.8335 84.4689 29.0376 84.4697 29.2417C85.0454 29.2426 85.6202 29.2409 86.1959 29.2426C86.1933 30.8543 86.1959 32.4659 86.195 34.0776C86.4393 34.0785 86.6844 34.0785 86.9295 34.0776C86.9287 32.4659 86.9304 30.8543 86.9287 29.2426C87.5035 29.2409 88.0791 29.2426 88.6548 29.2417C88.6539 29.0376 88.6539 28.8335 88.6539 28.6294H84.4706ZM89.4414 28.6302C89.4397 30.446 89.4414 32.2618 89.4406 34.0776C89.6848 34.0785 89.93 34.0785 90.1751 34.0776V31.5657C91.0753 31.5649 91.9755 31.5657 92.8766 31.5649C92.8757 32.4027 92.8766 33.2398 92.8757 34.0776C93.114 34.0785 93.3523 34.0785 93.5914 34.0776C93.5906 32.2618 93.5923 30.446 93.5906 28.6302C93.3514 28.6294 93.1123 28.6294 92.874 28.6285C92.88 29.41 92.8723 30.1906 92.8783 30.9721C91.9764 30.9713 91.0753 30.973 90.1742 30.9713C90.1759 30.1906 90.1751 29.41 90.1742 28.6302C89.9291 28.6294 89.6848 28.6294 89.4414 28.6302ZM105.327 28.6302C105.326 30.446 105.327 32.2618 105.327 34.0776C105.571 34.0785 105.815 34.0785 106.061 34.0776C106.059 32.6906 106.064 31.3035 106.059 29.9165C106.961 31.3027 107.856 32.694 108.76 34.0785C108.998 34.0785 109.238 34.0785 109.478 34.0776C109.477 32.2618 109.478 30.446 109.477 28.6302C109.238 28.6294 108.998 28.6294 108.761 28.6277C108.766 30.0284 108.757 31.4291 108.766 32.8298C107.862 31.4299 106.955 30.0309 106.052 28.6302C105.809 28.6285 105.568 28.6285 105.327 28.6302ZM111.029 29.4681C110.663 30.0506 110.606 30.7612 110.62 31.4325C110.602 32.1064 110.739 32.8136 111.157 33.3585C111.562 33.8931 112.243 34.1869 112.909 34.1494C113.602 34.1733 114.36 33.9615 114.788 33.3815C114.791 32.7085 114.79 32.0355 114.789 31.3625H112.826C112.825 31.5666 112.824 31.7707 112.826 31.9748C113.242 31.9748 113.659 31.9757 114.076 31.974C114.073 32.378 114.075 32.782 114.073 33.1859C113.631 33.5754 112.964 33.6454 112.412 33.4891C111.728 33.2731 111.401 32.5266 111.36 31.8604C111.362 31.2771 111.3 30.6749 111.496 30.1129C111.624 29.6859 111.958 29.3118 112.402 29.2076C112.836 29.1247 113.344 29.1478 113.683 29.4689C113.913 29.6603 113.992 29.96 114.075 30.2351C114.312 30.2351 114.55 30.2351 114.789 30.2342C114.717 29.7679 114.527 29.293 114.151 28.9906C113.23 28.2817 111.648 28.4244 111.029 29.4681ZM57.1567 34.62C56.8561 34.731 56.8535 35.2375 57.1499 35.3588C57.3984 35.4783 57.764 35.3289 57.7529 35.0214C57.8024 34.696 57.4334 34.4944 57.1567 34.62Z" fill="#DA282D"/>
<path fill-rule="evenodd" clip-rule="evenodd" d="M23.0187 9.61643C23.2254 9.54212 23.4842 9.61899 23.5661 9.83593C23.7037 10.1759 23.6857 10.5704 23.5653 10.9129C23.4816 11.188 23.1049 11.2981 22.8948 11.0957C22.6839 10.8677 22.6907 10.5295 22.7035 10.2399C22.7308 10.011 22.7735 9.71294 23.0187 9.61643Z" fill="#DA282D"/>
<path fill-rule="evenodd" clip-rule="evenodd" d="M52.5617 13.9311C53.0759 13.9516 53.6003 13.8781 54.1076 13.9883C54.4996 14.0814 54.7157 14.4854 54.6978 14.868C54.7021 16.829 54.7029 18.79 54.6978 20.7501C54.7097 21.1123 54.5244 21.5009 54.158 21.6102C53.6387 21.7537 53.093 21.6734 52.5626 21.693C52.5626 20.6434 52.5643 19.5928 52.5617 18.5432C52.9751 18.5423 53.3893 18.544 53.8036 18.5423C53.8044 18.0837 53.8036 17.6259 53.8044 17.1672C53.3902 17.1664 52.9759 17.1681 52.5626 17.1664C52.5626 16.0876 52.5643 15.0098 52.5617 13.9311Z" fill="#DA282D"/>
<path fill-rule="evenodd" clip-rule="evenodd" d="M70.4122 13.9308C70.9247 13.9513 71.4474 13.8787 71.9539 13.9872C72.3467 14.0777 72.5654 14.4809 72.5483 14.8644C72.5534 16.8254 72.5534 18.7872 72.5483 20.7491C72.5603 21.1095 72.3775 21.4981 72.0128 21.6083C71.4927 21.7552 70.9452 21.6732 70.4131 21.6928C70.4131 20.6432 70.4139 19.5926 70.4122 18.5429C70.8256 18.5421 71.2398 18.5438 71.6541 18.5421C71.6549 18.0834 71.6541 17.6256 71.6549 17.167C71.2407 17.1661 70.8265 17.1679 70.4131 17.1661C70.4131 16.0874 70.4139 15.0096 70.4122 13.9308Z" fill="#DA282D"/>
<path fill-rule="evenodd" clip-rule="evenodd" d="M59.9838 19.6801C60.2989 17.8685 60.6329 16.0596 60.9446 14.248C61.2564 16.0596 61.5912 17.8685 61.9055 19.6801C61.2649 19.6758 60.6243 19.6767 59.9838 19.6801Z" fill="#DA282D"/>
<path fill-rule="evenodd" clip-rule="evenodd" d="M77.7498 19.7294C78.0632 17.9162 78.3972 16.1072 78.7106 14.2939C79.0241 16.1072 79.3563 17.917 79.6749 19.7294H77.7498Z" fill="#DA282D"/>
<path fill-rule="evenodd" clip-rule="evenodd" d="M9.69399 19.5299C10.0911 19.4514 10.5327 19.5615 10.8556 19.805C11.1417 19.9946 11.017 20.5028 10.6753 20.5352C10.3132 20.5796 9.93484 20.4558 9.62652 20.2704C9.34466 20.1056 9.39676 19.6461 9.69399 19.5299Z" fill="#DA282D"/>
<path fill-rule="evenodd" clip-rule="evenodd" d="M51.3984 29.2424C51.9382 29.2698 52.5002 29.1673 53.0255 29.3304C53.6498 29.555 53.6259 30.5697 53.0366 30.8285C52.5258 31.0642 51.9416 30.9113 51.3993 30.954C51.3984 30.3835 51.4001 29.813 51.3984 29.2424Z" fill="#DA282D"/>
<path fill-rule="evenodd" clip-rule="evenodd" d="M56.9893 29.2344C57.5044 29.0951 58.1236 29.2608 58.4293 29.7178C58.765 30.185 58.8171 30.7854 58.7992 31.3431C58.8145 31.9068 58.777 32.5132 58.4481 32.9932C57.9886 33.7107 56.7963 33.7192 56.3052 33.0334C55.9866 32.5978 55.885 32.0409 55.9055 31.5114C55.9004 31.0408 55.885 30.5548 56.0738 30.1132C56.2181 29.6981 56.5563 29.3437 56.9893 29.2344Z" fill="#DA282D"/>
<path fill-rule="evenodd" clip-rule="evenodd" d="M69.038 29.2327C69.5505 29.0969 70.1637 29.2617 70.4686 29.7144C70.8086 30.1841 70.8598 30.7888 70.8419 31.3508C70.8572 31.9128 70.818 32.5158 70.49 32.9941C70.0305 33.7115 68.8365 33.7184 68.3462 33.0317C68.0293 32.5969 67.9268 32.0409 67.9482 31.5123C67.9431 31.0416 67.9277 30.5548 68.1165 30.1132C68.2608 29.6956 68.6033 29.3403 69.038 29.2327Z" fill="#DA282D"/>
<path fill-rule="evenodd" clip-rule="evenodd" d="M101.585 29.2634C102.113 29.0798 102.782 29.225 103.11 29.7007C103.478 30.1969 103.502 30.8409 103.485 31.4336C103.504 31.9931 103.443 32.5969 103.092 33.0556C102.588 33.738 101.394 33.691 100.95 32.9659C100.529 32.3398 100.582 31.5558 100.601 30.8383C100.647 30.2029 100.929 29.482 101.585 29.2634Z" fill="#DA282D"/>
<path fill-rule="evenodd" clip-rule="evenodd" d="M51.3984 31.5485C51.8622 31.5528 52.3268 31.5357 52.7906 31.5562C53.1553 31.5725 53.5277 31.827 53.5875 32.2028C53.7045 32.6392 53.561 33.1944 53.11 33.3763C52.566 33.589 51.9673 33.4643 51.3993 33.4976C51.3984 32.8476 51.4001 32.1985 51.3984 31.5485Z" fill="#DA282D"/>
</g>
<defs>
<clipPath id="clip0_3266_25239">
<rect width="120" height="46" fill="white"/>
</clipPath>
</defs>
</svg>
