<?xml version="1.0" encoding="UTF-8"?><svg id="Layer_2" xmlns="http://www.w3.org/2000/svg" viewBox="0 0 600.92 118.99"><defs><style>.cls-1{fill:#231f20;}.cls-1,.cls-2{stroke-width:0px;}.cls-2{fill:#f7941d;}</style></defs><g id="Layer_1-2"><polygon class="cls-1" points="301.71 42.95 284.53 42.95 300.31 59.5 284.53 76.04 301.71 76.04 317.49 59.5 301.71 42.95"/><polygon class="cls-2" points="325.81 17.88 313.66 5.73 313.12 28.58 290.26 29.12 302.41 41.27 325.27 40.73 325.81 17.88"/><polygon class="cls-2" points="360.57 17.18 360.57 0 344.03 15.78 327.48 0 327.48 17.18 344.03 32.96 360.57 17.18"/><polygon class="cls-2" points="385.65 41.27 397.8 29.12 374.94 28.58 374.4 5.73 362.25 17.88 362.79 40.73 385.65 41.27"/><polygon class="cls-1" points="386.34 76.04 403.52 76.04 387.74 59.5 403.52 42.95 386.34 42.95 370.56 59.5 386.34 76.04"/><polygon class="cls-2" points="362.25 101.12 374.4 113.26 374.94 90.41 397.8 89.87 385.65 77.72 362.79 78.26 362.25 101.12"/><polygon class="cls-2" points="327.48 101.81 327.48 118.99 344.03 103.21 360.57 118.99 360.57 101.81 344.03 86.03 327.48 101.81"/><polygon class="cls-2" points="302.41 77.72 290.26 89.87 313.12 90.41 313.66 113.26 325.81 101.12 325.27 78.26 302.41 77.72"/><path class="cls-2" d="m278.62,30.44v11.28h-6.53c-4.13,0-8.26.06-12.38-.03-1.42-.03-1.86.32-1.86,1.81.06,14.35.03,28.69.03,43.04v2.02h-12.33v-46.82h-20.77v-11.3h53.83Z"/><path class="cls-2" d="m600.92,29.9h-2.4s-9.84,0-9.84,0c0,3.58.1,7.05-.03,10.52-.1,2.65-.24,5.34-.8,7.92-1.07,4.93-4.1,8.21-9.05,9.67-3.97,1.17-7.97,1.12-11.92.31-6.25-1.28-9.99-5.63-10.33-11.96-.26-4.87-.22-9.76-.31-14.63-.01-.59,0-1.18,0-1.83h-9.91,0s-2.36,0-2.36,0v13.95s.1,2.33.43,4.52v-.1c.14.96.29,1.92.5,2.88,1.52,6.97,5.22,12.28,11.69,15.49,4.49,2.22,9.29,3,14.26,3.16,4.05.14,7.93-.4,11.52-2.29,1.96-1.03,3.73-2.42,5.65-3.7.08,3.38-.61,6.52-2.89,9.17-2.94,3.41-6.84,4.78-11.19,5.02-6.66.37-12.64-1.27-17.37-6.28-1.6-1.69-1.58-1.72-3.62-.65-2.74,1.44-5.47,2.9-8.28,4.4,2.56,4.26,5.96,7.4,10.19,9.57,8.95,4.6,18.38,5.03,27.96,2.66,6.42-1.59,11.36-5.3,14.51-11.25,2.28-4.31,3.33-8.95,3.42-13.73.01-.83.02-1.66.03-2.49.04-1.45.13-4.45.13-4.45v-25.88Z"/><path class="cls-2" d="m535.17,65.73v-6.22l-.03-1.02c0-.43,0-.86,0-1.28-.03-2.79-.33-5.62-.86-8.36-1.75-9.01-7.25-14.74-15.97-17.35-6.67-2-13.44-2.02-20.26-.69-12.44,2.43-19.06,11.13-19.49,22.74-.22,6.01-.25,12.03-.25,18.05l-.02.03v17.41h.14s0,.02,0,.03h12.16v-15.71h32.38v15.73h12.2v-1.46s0-.06,0-.09c0-7.27.02-14.54,0-21.81Zm-44.55-3.81c0-2.08-.11-4.12.02-6.15.21-3.27.71-6.48,2.69-9.25,2.27-3.17,5.53-4.73,9.22-4.99,3.47-.24,7.07-.23,10.47.42,5.7,1.08,8.67,5.18,9.53,10.69.47,3,.35,6.09.5,9.28h-32.44Z"/><path class="cls-2" d="m468.77,51.93c-2.22-12.45-11.04-19.79-22.87-21.53-5.63-.83-11.22-.72-16.79.42-4.54.92-8.7,2.67-12.12,5.88-5.19,4.87-7.26,11.18-7.43,18-.17,6.49-.18,12.98-.16,19.47h-.02s0,14.96,0,14.96h4.21c6.64.01,13.28.05,19.92-.04,7.16-.09,14.2-.89,20.7-4.3,6.9-3.62,11.85-8.9,14.03-16.46,1.55-5.39,1.52-10.85.53-16.4Zm-13.97,16.18c-1.81,3.37-4.64,5.58-8.06,7.13-4.1,1.86-8.47,2.39-12.9,2.52-3.67.11-7.35.03-11.02.03-.34,0-.68-.08-1.06-.12-.05-.24-.13-.43-.13-.62.07-7.65,0-15.3.27-22.94.23-6.45,4.04-10.83,10.4-12.27,4.3-.98,8.67-1.01,12.99.07,5.71,1.43,9.38,5.03,10.83,10.7,1.35,5.28,1.36,10.53-1.32,15.51Z"/><path class="cls-1" d="m.14,89c-.07-.25-.12-.34-.12-.43.02-11.42-.09-22.85.11-34.27.08-4.66,1.13-9.2,3.54-13.34,2.65-4.55,6.52-7.48,11.38-9.06,7.16-2.32,14.45-2.59,21.85-1.22,4.02.75,7.71,2.17,11.06,4.52,3.9,2.73,6.73,6.37,8.42,10.83,2.61,6.87,3.1,13.99,1.42,21.13-2.29,9.74-8.7,15.77-17.69,19.32-5.44,2.15-11.15,2.46-16.88,2.55-7.39.12-14.79.05-22.18.05-.28,0-.57-.05-.9-.08Zm5.93-5.93c.4.04.77.11,1.15.11,5.88,0,11.77.08,17.65-.02,4.62-.08,9.16-.83,13.49-2.58,6.75-2.72,11.49-7.37,13.34-14.63,1.13-4.44,1.08-8.96.19-13.46-1.46-7.4-5.47-12.68-12.67-15.13-6.38-2.17-12.87-2.04-19.39-.68-8.47,1.76-13.2,7.23-13.58,15.64-.46,10.02-.23,20.07-.29,30.11,0,.19.06.37.1.64Z"/><path class="cls-1" d="m109.2,84.42v-.19h-.02c-.1-.86-.6-1.17-1.81-1.15-5.98.11-11.97.09-17.95.04-4.56-.04-8.94-.85-12.96-3.31-5.79-3.54-8.12-10.96-7.47-17.88h1.84c12.02,0,24.03,0,36.05,0,.39,0,.81.09,1.16-.03.33-.12.81-.46.82-.72.07-1.68.04-3.36.04-5.19h-40.28c.32-2.35.46-4.56.94-6.68,1.23-5.49,4.43-9.3,9.49-11.5,3.75-1.63,7.68-1.98,11.67-2.02,5.55-.05,11.09-.01,16.64-.02.57,0,1.13-.06,1.72-.09v-5.89c-5.34,0-10.59-.08-15.83.03-3.39.07-6.82.16-10.16.67-5.01.77-9.59,2.75-13.34,6.42-4.71,4.61-6.52,10.52-6.83,16.99-.17,3.65-.11,7.33,0,10.99.12,4.19.95,8.26,2.94,11.94,4.15,7.67,10.99,11.22,19.08,11.87,7.49.6,15.04.35,22.57.44v.02h1.72v-4.46c0-.09,0-.18,0-.27Z"/><path class="cls-1" d="m168.1,81.5c0-8.33.02-16.66-.03-24.99-.02-2.49-.19-5.03-.65-7.47-1.78-9.33-7.33-15.37-16.32-17.78-8.04-2.16-16.14-2-24.03,1.05-3.47,1.34-6.42,3.46-8.74,6.39-3.74,4.72-5.17,10.3-5.23,16.21-.09,9.08-.05,18.16-.03,27.24h0s0,6.9,0,6.9h5.92,0s0,0,0,0v-19.47h43.26v19.5h5.87v-7.6h0Zm-5.91-17.86h-43.37c.21-4.11.19-8.19.7-12.19.32-2.47,1.17-4.98,2.31-7.2,2.14-4.15,5.85-6.47,10.28-7.49,6.34-1.46,12.69-1.5,18.92.62,4.53,1.54,7.65,4.62,9.45,9.11,1.38,3.44,1.58,7.06,1.69,10.7.06,2.1.01,4.21.01,6.45Z"/><path class="cls-1" d="m199.25,83.11c-3.32,0-6.59-.38-9.73-1.55-4.93-1.84-8.4-5.15-10.11-10.39-.95-2.92-1.12-5.89-1.13-8.9-.04-10.14-.01-20.28-.02-30.42v-2h-5.96v2.07h.02c0,10.48-.05,20.94.04,31.41.02,2.48.3,5,.8,7.43,1.25,6.04,4.37,10.82,9.55,14.06,4.59,2.87,9.66,4.09,14.96,4.24,5.45.15,10.9.06,16.35.06.33,0,.65-.07,1-.1v-5.9c-5.35,0-10.56,0-15.76,0Z"/></g></svg>